<svg xmlns="http://www.w3.org/2000/svg" viewBox="0 0 192 192"><defs><style>.cls-1{fill:#18ffff;}.cls-2{fill:#ef5350;}.cls-3{fill:#76ff03;}.cls-4{fill:#ff0;}.cls-5{fill:#8bc34a;}.cls-6{fill:#00b0ff;}</style></defs><title>iconandlytics</title><g id="Layer_10" data-name="Layer 10"><polygon class="cls-1" points="182.15 103.92 182.15 188.4 13.19 188.4 14.34 105.08 72.92 46.5 121.92 95.5 150.47 66.96 134.63 51.12 167.75 65.89 181.97 97.15 165.65 80.82 124.89 121.58 75.23 71.91 22.02 125.12 22.02 177.84 165.98 177.84 165.98 172.56 166.31 172.56 166.31 88.08 182.15 103.92"/><polygon class="cls-2" points="181.97 72.24 181.97 97.15 167.75 65.89 181.97 72.24"/><polygon class="cls-3" points="167.75 65.89 134.63 51.12 161.03 51.12 167.75 65.89"/><polygon class="cls-4" points="181.97 51.12 181.97 72.24 167.75 65.89 161.03 51.12 181.97 51.12"/></g><g id="Layer_11" data-name="Layer 11"><polygon class="cls-3" points="182.15 3.6 182.15 45.84 166.31 45.84 166.31 19.44 165.98 19.44 165.98 12.84 21.94 12.84 21.94 84.62 13.19 93.36 13.19 3.6 182.15 3.6"/></g><g id="Layer_12" data-name="Layer 12"><path class="cls-3" d="M70.44,34.46a9.74,9.74,0,1,1-9.73-9.74A9.73,9.73,0,0,1,70.44,34.46Z"/><path class="cls-3" d="M144.36,35.28a9.74,9.74,0,1,1-9.73-9.73A9.74,9.74,0,0,1,144.36,35.28Z"/></g><g id="Layer_14" data-name="Layer 14"><polygon class="cls-5" points="165.98 12.84 165.98 19.44 28.87 19.44 28.87 77.69 21.94 84.62 21.94 12.84 165.98 12.84"/><polygon class="cls-6" points="165.98 172.56 165.98 177.84 22.02 177.84 22.02 125.12 75.23 71.91 124.89 121.58 120.61 125.87 74.41 79.67 29.03 125.04 29.03 172.56 165.98 172.56"/></g></svg>